<svg id="Layer_1" data-name="Layer 1" xmlns="http://www.w3.org/2000/svg" viewBox="0 0 509.09 143.62"><defs><style>.cls-1{fill:#7412dc;}</style></defs><title>Scouts Logo</title><path class="cls-1" d="M0,112,9.23,101c6.39,5.28,13.09,8.63,21.2,8.63,6.39,0,10.25-2.54,10.25-6.7v-.2c0-4-2.44-6-14.31-9C12.07,90,2.84,86.05,2.84,72v-.2c0-12.88,10.35-21.4,24.85-21.4a41.13,41.13,0,0,1,26.38,9L46,71.14c-6.29-4.36-12.48-7-18.46-7s-9.13,2.74-9.13,6.19v.2c0,4.67,3,6.19,15.32,9.33,14.4,3.76,22.51,8.93,22.51,21.31v.2c0,14.1-10.75,22-26.06,22A45.16,45.16,0,0,1,0,112" transform="translate(0)"/><path class="cls-1" d="M62,95.49v-.21C62,79.76,73.89,67,90.52,67c10.25,0,16.64,3.45,21.72,9.13L102.8,86.25c-3.45-3.65-6.89-6-12.37-6-7.72,0-13.19,6.8-13.19,14.81v.2c0,8.32,5.37,15,13.79,15,5.18,0,8.73-2.23,12.48-5.78l9,9.13c-5.28,5.78-11.36,9.94-22.22,9.94C74,123.58,62,111,62,95.49" transform="translate(0)"/><path class="cls-1" d="M159.18,95.49v-.21c0-8-5.78-15-14.31-15-8.82,0-14.1,6.8-14.1,14.81v.2c0,8,5.78,15,14.31,15,8.82,0,14.1-6.79,14.1-14.8m-43.62,0v-.21c0-15.62,12.58-28.3,29.52-28.3s29.31,12.48,29.31,28.1v.2c0,15.62-12.58,28.3-29.52,28.3s-29.31-12.47-29.31-28.09" transform="translate(0)"/><path class="cls-1" d="M180.41,103.19V68h15.42V98.33c0,7.3,3.44,11,9.33,11s9.63-3.75,9.63-11V68h15.42v54.37H214.79v-7.71c-3.55,4.56-8.11,8.72-15.92,8.72-11.67,0-18.46-7.71-18.46-20.19" transform="translate(0)"/><path class="cls-1" d="M239.17,107V54.1h15.42V68h12.78V81.18H254.59v23.23c0,3.55,1.52,5.28,5,5.28a15.62,15.62,0,0,0,7.6-1.93v12.38A22.76,22.76,0,0,1,255,123.28c-9.43,0-15.82-3.75-15.82-16.33" transform="translate(0)"/><path class="cls-1" d="M274.16,115.16l6.6-10.14c5.88,4.26,12.06,6.49,17.14,6.49,4.46,0,6.49-1.62,6.49-4.05v-.21c0-3.35-5.28-4.46-11.26-6.29-7.61-2.23-16.23-5.78-16.23-16.33v-.2c0-11.06,8.93-17.24,19.88-17.24a37.69,37.69,0,0,1,20.29,6.28l-5.89,10.65c-5.37-3.14-10.75-5.07-14.7-5.07-3.76,0-5.68,1.63-5.68,3.75V83c0,3,5.17,4.46,11.05,6.49,7.61,2.54,16.44,6.19,16.44,16.13v.2c0,12.07-9,17.55-20.8,17.55a38.08,38.08,0,0,1-23.33-8.22" transform="translate(0)"/><path class="cls-1" d="M393,64.6a50,50,0,0,1,7.31,19.69h8a57.33,57.33,0,0,0-8.66-24.05c-6.42-9.85-14.79-15.07-24.2-15.07h-.05A23.59,23.59,0,0,0,357,54a24.8,24.8,0,0,0-4.95,21l7.79-1.7A17.13,17.13,0,0,1,363.22,59a15.43,15.43,0,0,1,12.21-5.87h0C383.79,53.15,389.6,59.38,393,64.6Z" transform="translate(0)"/><path class="cls-1" d="M451,120.48a38.24,38.24,0,0,1-6.4-14.47h-8.11a45.32,45.32,0,0,0,6.63,17.07,33.78,33.78,0,0,1-12.79,11.76h0a33.64,33.64,0,0,1-12.79-11.76A45.09,45.09,0,0,0,424.11,106H416a38.26,38.26,0,0,1-6.41,14.47l-1.35,1.89,1,2.11c3.39,7.39,11.21,14.8,19.46,18.43l1.61.71h0l1.6-.71c8.25-3.63,16.07-11,19.46-18.43l1-2.11Z" transform="translate(0)"/><path class="cls-1" d="M467.57,64.6a50,50,0,0,0-7.3,19.69h-8a57.3,57.3,0,0,1,8.65-24.05c6.43-9.85,14.8-15.07,24.2-15.07h.06A23.56,23.56,0,0,1,503.56,54a24.8,24.8,0,0,1,4.95,21l-7.79-1.7A17.09,17.09,0,0,0,497.36,59a15.44,15.44,0,0,0-12.22-5.87h0C476.78,53.15,471,59.38,467.57,64.6Z" transform="translate(0)"/><path class="cls-1" d="M416.35,84.29h8c-1-9.25-4.63-17.32-7.85-24.46s-6.24-13.86-6.2-20.57c.06-7.71,4.46-15.58,11.77-21,1.28-1,4.92-3.75,8.19-6.75,3.27,3,6.91,5.79,8.19,6.75,7.3,5.47,11.7,13.34,11.77,21,0,6.71-3,13.45-6.2,20.57S437.2,75,436.2,84.29h8c1-7.64,4.09-14.52,7.09-21.18,3.58-7.94,7-15.45,6.9-23.91-.09-10.2-5.68-20.42-15-27.37A91.5,91.5,0,0,1,433.2,3.15L430.29,0l-2.92,3.15a90.56,90.56,0,0,1-10.06,8.68c-9.27,7-14.87,17.17-15,27.37-.05,8.46,3.33,16,6.9,23.91C412.26,69.77,415.35,76.65,416.35,84.29Z" transform="translate(0)"/><rect class="cls-1" x="384.72" y="91.33" width="91.13" height="7.65"/></svg>
